<svg xmlns="http://www.w3.org/2000/svg" xmlns:xlink="http://www.w3.org/1999/xlink" width="180" height="60" viewBox="0 0 180 60">
  <defs>
    <style>
      .cls-1 {
        fill: #ff0101;
      }

      .cls-1, .cls-2 {
        fill-rule: evenodd;
      }

      .cls-2 {
        filter: url(#filter);
      }
    </style>
    <filter id="filter" x="28.063" y="28.25" width="150.688" height="26.25" filterUnits="userSpaceOnUse">
      <feFlood result="flood" flood-color="#b6b6b6"/>
      <feComposite result="composite" operator="in" in2="SourceGraphic"/>
      <feBlend result="blend" in2="SourceGraphic"/>
    </filter>
  </defs>
  <g id="Artboard_1" data-name="Artboard 1">
    <path id="Sexy" class="cls-1" d="M53.835,0.089H35.972s-3.964,0-7.908,5.285c-0.113.159-7.352,9.143-7.352,9.143-3.183,3.964,1.752,3.911,1.752,3.911H36.469L29.109,29H10.77L6.078,34.864H27.165c3.964,0,6.955-4.016,6.955-4.016l8.711-12.9s2.458-5.126-1.506-5.126H27.8l5.909-7.135H48.979ZM70.629,29.05H47.587c-1.268,0-2.536-.423-1.979-1.9a4.849,4.849,0,0,1,.854-1.427h17.7l5.711-7.452c2.462-3.171,1.428-5.338-.9-5.338H54.235c-2.8,0-6.115,2.907-7.855,5.285-2.264,3.065-9.046,11.257-10.16,14.216-0.5,1.321.109,2.378,1.483,2.378H59.371C63.018,34.811,67.606,32.169,70.629,29.05Zm-7.293-9.83a10.77,10.77,0,0,1-1.357,2.061H49.93c1.516-2.061,2.839-3.752,5.482-3.752h6.976C63.444,17.529,63.694,18.269,63.336,19.221ZM104.962,29.1H92.437l-1.374-4.915L107.9,12.879H100.71l-10.248,6.87-2.3-6.817h-7.24l3.507,10.623-18.42,11.31h8.244L84.782,28.1,86.1,32.591a3.454,3.454,0,0,0,3.425,2.273h4.492C99.782,34.864,104.962,29.1,104.962,29.1Zm32.874,0h-9.143l12-16.172h-6.13L122.562,29.1h-9.935c-1.533,0-1.471-1.427-.611-2.59L122.1,12.932h-6.289L102.451,31.006s-2.245,3.858,1.349,3.858h14.533L107.6,49.344h6.131l10.735-14.481h2.589C132.814,34.864,137.836,29.1,137.836,29.1Z"/>
    <path id="Action_News" data-name="Action News" class="cls-2" d="M35.146,31.048V43.929h-1.89V31.048a5.221,5.221,0,0,0-5.18,5.216V54.5h5.18V45.329h1.89V54.5h5.181V36.263A5.221,5.221,0,0,0,35.146,31.048ZM48.13,54.5V36.123a5.184,5.184,0,0,0-5.181,5.145v8.016A5.221,5.221,0,0,0,48.13,54.5Zm1.89-10.326H55.2V41.269a5.161,5.161,0,0,0-5.18-5.145v8.051Zm0,10.326a5.161,5.161,0,0,0,5.18-5.145V46.449H50.02V54.5Zm12.809,0V31.048H57.649V49.285A5.221,5.221,0,0,0,62.83,54.5Zm1.54-13.161a5.221,5.221,0,0,0,5.18-5.215H64.37v5.215Zm9.379-7.421a2.835,2.835,0,1,0,0-5.671A2.835,2.835,0,1,0,73.749,33.918ZM71.124,54.5H76.3V36.123h-5.18V54.5Zm12.81,0V36.123a5.184,5.184,0,0,0-5.18,5.145v8.016A5.221,5.221,0,0,0,83.935,54.5Zm1.89,0a5.221,5.221,0,0,0,5.18-5.215V41.269a5.184,5.184,0,0,0-5.18-5.145V54.5Zm7.629,0h5.181V36.123H93.454V54.5Zm7.07,0h5.181V41.269a5.184,5.184,0,0,0-5.181-5.145V54.5Zm14.979,0h5.181V31.048H115.5V54.5Zm7.071,0h5.18V36.263a5.221,5.221,0,0,0-5.18-5.216V54.5Zm12.984,0V36.123a5.184,5.184,0,0,0-5.18,5.145v8.016A5.221,5.221,0,0,0,135.558,54.5Zm1.89-6.511a5.161,5.161,0,0,0,5.181-5.145V41.3a5.191,5.191,0,0,0-5.181-5.181V47.989Zm0,6.511a5.161,5.161,0,0,0,5.181-5.145h-5.181V54.5Zm7.454,0h5.181V41.269a5.185,5.185,0,0,0-5.181-5.145V54.5Zm7.071,0h5.18V41.269a5.184,5.184,0,0,0-5.18-5.145V54.5Zm7.071,0a5.184,5.184,0,0,0,5.18-5.145V36.123h-5.18V54.5Zm12.633-6.511V36.123A5.191,5.191,0,0,0,166.5,41.3v1.54A5.161,5.161,0,0,0,171.677,47.989Zm1.891-6.721h5.18a5.161,5.161,0,0,0-5.18-5.145v5.145Zm0,13.231a5.191,5.191,0,0,0,5.18-5.181v-1.54a5.161,5.161,0,0,0-5.18-5.145V54.5Zm-1.891,0V49.355H166.5A5.161,5.161,0,0,0,171.677,54.5Z"/>
  </g>
</svg>
